<svg class="svg-icon" style="width: 1em; height: 1em;vertical-align: middle;fill: currentColor;overflow: hidden;" viewBox="0 0 1024 1024" version="1.1" xmlns="http://www.w3.org/2000/svg"><path d="M85.333333 981.333333c-23.466667 0-42.666667-19.2-42.666666-42.666666 0-162.133333 74.666667-309.333333 192-384-27.733333-36.266667-42.666667-81.066667-42.666667-128 0-117.333333 96-213.333333 213.333333-213.333334s213.333333 96 213.333334 213.333334c0 49.066667-17.066667 91.733333-42.666667 128 117.333333 74.666667 192 219.733333 192 384 0 23.466667-19.2 42.666667-42.666667 42.666666H85.333333z m219.733334-366.933333C209.066667 661.333333 142.933333 770.133333 130.133333 896h550.4c-12.8-125.866667-78.933333-234.666667-172.8-281.6-29.866667 17.066667-64 25.6-102.4 25.6s-70.4-8.533333-100.266666-25.6zM405.333333 298.666667c-70.4 0-128 57.6-128 128s57.6 128 128 128 128-57.6 128-128-57.6-128-128-128z" fill="#2F3CF4" /><path d="M789.333333 384c27.733333-36.266667 42.666667-81.066667 42.666667-128 0-117.333333-96-213.333333-213.333333-213.333333-59.733333 0-117.333333 25.6-157.866667 70.4-14.933333 17.066667-14.933333 44.8 2.133333 59.733333 17.066667 14.933333 44.8 14.933333 59.733334-2.133333 23.466667-27.733333 57.6-42.666667 93.866666-42.666667 70.4 0 128 57.6 128 128 0 42.666667-21.333333 81.066667-53.333333 104.533333l-2.133333 2.133334c-2.133333 2.133333-4.266667 2.133333-4.266667 4.266666l-2.133333 2.133334c0 2.133333-2.133333 2.133333-2.133334 4.266666-2.133333 2.133333-2.133333 4.266667-2.133333 4.266667s0 2.133333-2.133333 2.133333c0 2.133333-2.133333 4.266667-2.133334 8.533334v17.066666c0 2.133333 0 2.133333 2.133334 4.266667 0 2.133333 0 2.133333 2.133333 4.266667s2.133333 4.266667 4.266667 6.4l6.4 6.4 2.133333 2.133333c2.133333 2.133333 4.266667 2.133333 4.266667 4.266667 2.133333 0 2.133333 2.133333 4.266666 2.133333h2.133334c104.533333 42.666667 179.2 155.733333 192 290.133333h-72.533334c-23.466667 0-42.666667 19.2-42.666666 42.666667s19.2 42.666667 42.666666 42.666667H938.666667c23.466667 0 42.666667-19.2 42.666666-42.666667 0-162.133333-74.666667-309.333333-192-384" fill="#2F3CF4" /></svg>