<?xml version="1.0" encoding="UTF-8"?> <svg xmlns="http://www.w3.org/2000/svg" xmlns:xlink="http://www.w3.org/1999/xlink" width="500" zoomAndPan="magnify" viewBox="0 0 375 374.999991" height="500" preserveAspectRatio="xMidYMid meet" version="1.0"><defs><clipPath id="59e755dd15"><path d="M 84 90 L 304 90 L 304 333.75 L 84 333.75 Z M 84 90 " clip-rule="nonzero"></path></clipPath><clipPath id="3d707490ef"><path d="M 37.5 37.5 L 350.25 37.5 L 350.25 195 L 37.5 195 Z M 37.5 37.5 " clip-rule="nonzero"></path></clipPath></defs><rect x="-37.5" width="450" fill="#ffffff" y="-37.499999" height="449.999989" fill-opacity="1"></rect><rect x="-37.5" width="450" fill="#ffffff" y="-37.499999" height="449.999989" fill-opacity="1"></rect><rect x="-37.5" width="450" fill="#ffffff" y="-37.499999" height="449.999989" fill-opacity="1"></rect><g clip-path="url(#59e755dd15)"><path fill="#366dbf" d="M 303.671875 188.089844 Z M 303.671875 188.089844 L 193.910156 90.78125 L 84.078125 188.128906 L 84.078125 327.230469 C 84.078125 330.824219 86.980469 333.707031 90.570312 333.707031 L 159.207031 333.707031 L 159.207031 272.714844 C 159.207031 269.121094 162.085938 266.21875 165.675781 266.21875 L 222.074219 266.21875 C 225.660156 266.21875 228.539062 269.121094 228.539062 272.714844 L 228.539062 333.707031 L 297.199219 333.707031 C 300.789062 333.707031 303.667969 330.824219 303.667969 327.230469 L 303.667969 188.082031 Z M 84.078125 188.128906 Z M 84.078125 188.128906 " fill-opacity="1" fill-rule="nonzero"></path></g><g clip-path="url(#3d707490ef)"><path fill="#366dbf" d="M 193.269531 37.527344 L 37.5 175.589844 L 53.910156 194.121094 L 193.90625 70.027344 L 333.875 194.121094 L 350.25 175.589844 L 194.515625 37.527344 L 193.910156 38.226562 L 193.273438 37.527344 Z M 193.269531 37.527344 " fill-opacity="1" fill-rule="nonzero"></path></g><path fill="#366dbf" d="M 84.078125 57.402344 L 123.566406 57.402344 L 123.222656 80.8125 L 84.078125 116.210938 Z M 84.078125 57.402344 " fill-opacity="1" fill-rule="nonzero"></path></svg> 