<svg class="svg-icon" style="width: 1em;height: 1em;vertical-align: middle;fill: currentColor;overflow: hidden;" viewBox="0 0 1024 1024" version="1.1" xmlns="http://www.w3.org/2000/svg"><path d="M850.505855 555.615769V385.573978a255.112318 255.112318 0 0 0-255.112319-255.112318V87.976029a85.070528 85.070528 0 1 0-170.04179 0v42.485631a255.112318 255.112318 0 0 0-255.112318 255.112318v170.041791L42.683268 810.728087h935.378746zM467.837377 87.976029a42.584897 42.584897 0 1 1 85.070528 0v42.485631h-85.070528zM196.544783 598.498462h356.363122v-42.882693H212.725059V385.573978a212.924484 212.924484 0 0 1 212.626687-212.626687h170.04179A212.924484 212.924484 0 0 1 808.020223 385.573978v180.067606l4.466948 9.03316 96.783856 193.567712H111.474255z" fill="#00528F" /><path d="M637.978433 555.615769h85.070528v42.485631h-85.070528zM510.422274 980.869143A85.169793 85.169793 0 0 1 425.351746 896.294943h-42.485631A127.556159 127.556159 0 0 0 638.27623 896.294943h-42.882694a85.169793 85.169793 0 0 1-84.971262 84.5742z" fill="#00528F" /></svg>