<?xml version="1.0" encoding="UTF-8"?>
<svg width="25px" height="23px" viewBox="0 0 25 23" version="1.1" xmlns="http://www.w3.org/2000/svg" xmlns:xlink="http://www.w3.org/1999/xlink">
    <!-- Generator: Sketch 42 (36781) - http://www.bohemiancoding.com/sketch -->
    <title>photo-frame</title>
    <desc>Created with Sketch.</desc>
    <defs></defs>
    <g id="Page-1" stroke="none" stroke-width="1" fill="none" fill-rule="evenodd">
        <g id="Subtle-Color" transform="translate(-500.000000, -201.000000)" fill="#45C7D8">
            <g id="photo-frame" transform="translate(500.000000, 201.000000)">
                <path d="M12.5,2.5031 C13.053,2.5031 13.5,2.0561 13.5,1.5031 C13.5,0.9501 13.053,0.5031 12.5,0.5031 C11.947,0.5031 11.5,0.9501 11.5,1.5031 C11.5,2.0561 11.947,2.5031 12.5,2.5031 L12.5,2.5031 Z M0.5,22.5031 L24.5,22.5031 L24.5,4.5031 L0.5,4.5031 L0.5,22.5031 Z" id="Fill-147" opacity="0.119999997"></path>
                <path d="M7,10.0031 C7.552,10.0031 8,10.4511 8,11.0031 C8,11.5551 7.552,12.0031 7,12.0031 C6.448,12.0031 6,11.5551 6,11.0031 C6,10.4511 6.448,10.0031 7,10.0031 L7,10.0031 Z M7,13.0031 C8.103,13.0031 9,12.1061 9,11.0031 C9,9.9001 8.103,9.0031 7,9.0031 C5.897,9.0031 5,9.9001 5,11.0031 C5,12.1061 5.897,13.0031 7,13.0031 L7,13.0031 Z M3,7.0031 L22,7.0031 L22,20.0031 L21.758,20.0031 L16.907,13.2121 C16.821,13.0931 16.688,13.0171 16.541,13.0051 C16.396,12.9911 16.25,13.0461 16.146,13.1491 L11.453,17.8431 L7.8,15.1031 C7.583,14.9401 7.278,14.9801 7.109,15.1901 L3.26,20.0031 L3,20.0031 L3,7.0031 Z M4.541,20.0031 L7.588,16.1931 L11.2,18.9031 C11.397,19.0511 11.678,19.0321 11.854,18.8571 L16.437,14.2741 L20.527,20.0031 L4.541,20.0031 Z M2,21.0031 L23,21.0031 L23,6.0031 L2,6.0031 L2,21.0031 Z M1,22.0031 L24,22.0031 L24,5.0031 L1,5.0031 L1,22.0031 Z M11.795,2.8181 C12.006,2.9331 12.244,3.0031 12.5,3.0031 C12.756,3.0031 12.994,2.9331 13.205,2.8181 L14.907,4.0031 L10.093,4.0031 L11.795,2.8181 Z M12.5,1.0031 C12.775,1.0031 13,1.2281 13,1.5031 C13,1.7781 12.775,2.0031 12.5,2.0031 C12.225,2.0031 12,1.7781 12,1.5031 C12,1.2281 12.225,1.0031 12.5,1.0031 L12.5,1.0031 Z M24.5,4.0031 L16.656,4.0031 L13.886,2.0741 C13.959,1.8981 14,1.7051 14,1.5031 C14,0.6761 13.327,0.0031 12.5,0.0031 C11.673,0.0031 11,0.6761 11,1.5031 C11,1.7051 11.041,1.8981 11.114,2.0741 L8.344,4.0031 L0.5,4.0031 C0.224,4.0031 0,4.2271 0,4.5031 L0,22.5031 C0,22.7791 0.224,23.0031 0.5,23.0031 L24.5,23.0031 C24.776,23.0031 25,22.7791 25,22.5031 L25,4.5031 C25,4.2271 24.776,4.0031 24.5,4.0031 L24.5,4.0031 Z" id="Fill-148"></path>
            </g>
        </g>
    </g>
</svg>