<svg xmlns="http://www.w3.org/2000/svg" width="24" height="24" fill="none" viewBox="0 0 24 24" id="instagram-reel"><path fill="#5E94FF" d="M6.5 1.25C3.6005 1.25 1.25 3.60051 1.25 6.5V17.5C1.25 20.3995 3.60051 22.75 6.5 22.75H17.5C20.3995 22.75 22.75 20.3995 22.75 17.5V6.5C22.75 3.6005 20.3995 1.25 17.5 1.25H6.5Z"></path><path fill="#ECEFF1" d="M9.9301 10.3856C9.70099 10.2252 9.40169 10.2056 9.15364 10.3348C8.90559 10.4639 8.75 10.7203 8.75 11V18C8.75 18.2797 8.90559 18.5361 9.15364 18.6652C9.40169 18.7944 9.70099 18.7748 9.9301 18.6144L14.9301 15.1144C15.1306 14.9741 15.25 14.7447 15.25 14.5C15.25 14.2553 15.1306 14.0259 14.9301 13.8856L9.9301 10.3856Z"></path><path fill="#ECEFF1" fill-rule="evenodd" d="M1.25 7.25H22.75V8.75H1.25V7.25Z" clip-rule="evenodd"></path><path fill="#ECEFF1" fill-rule="evenodd" d="M8.54061 1.25L8.71155 1.76283 10.7116 7.76283C10.8425 8.15579 10.6302 8.58053 10.2372 8.71151 9.84426 8.8425 9.41952 8.63013 9.28853 8.23717L7.28853 2.23717 6.95947 1.25H8.54061zM14.5406 1.25L14.7116 1.76283 16.7116 7.76283C16.8425 8.15579 16.6302 8.58053 16.2372 8.71151 15.8443 8.8425 15.4195 8.63013 15.2885 8.23717L13.2885 2.23717 12.9595 1.25H14.5406z" clip-rule="evenodd"></path></svg>