<svg id="Icons" xmlns="http://www.w3.org/2000/svg" viewBox="0 0 66 66"><defs><style>.cls-1{fill:#416894;}.cls-2{fill:#4c7aae;}.cls-3{opacity:0.15;}.cls-4{fill:#fffcf2;}.cls-5{fill:#3dbb69;}.cls-6{opacity:0.15;}.cls-7{fill:#344e5f;}</style></defs><title>video-camera</title><g id="Video_Camera" data-name="Video Camera"><g id="Circle_Shadow" data-name="Circle Shadow"><circle class="cls-1" cx="33" cy="34" r="31"/></g><g id="Circle"><circle class="cls-2" cx="33" cy="32" r="31"/></g><path id="Long_Shadow" data-name="Long Shadow" class="cls-3" d="M63.81,35.39,50.7,22.28,43.87,26l-5.46-5.46-1.78,7.68H22.83L15.57,43.39,35.1,62.92A31,31,0,0,0,63.81,35.39Z"/><g id="Camera-2" data-name="Camera"><path class="cls-4" d="M50,22a1,1,0,0,0-.42.1h0l-8.58,4v11.9l8.58,4h0A1,1,0,0,0,50,42a1,1,0,0,0,1-1V23A1,1,0,0,0,50,22ZM37,20H17a2,2,0,0,0-2,2V42a2,2,0,0,0,2,2H37a2,2,0,0,0,2-2V22A2,2,0,0,0,37,20Z"/></g><g id="Greenv"><path class="cls-5" d="M33,24a2,2,0,1,0,2,2A2,2,0,0,0,33,24Zm-5,1a1,1,0,1,0,1,1A1,1,0,0,0,28,25Z"/></g><g id="Line" class="cls-6"><rect class="cls-7" x="15" y="38" width="24" height="2"/></g></g></svg>